<?xml version="1.0" standalone="no"?><!DOCTYPE svg PUBLIC "-//W3C//DTD SVG 1.1//EN" "http://www.w3.org/Graphics/SVG/1.1/DTD/svg11.dtd"><svg t="1545892040628" class="icon" style="" viewBox="0 0 1024 1024" version="1.1" xmlns="http://www.w3.org/2000/svg" p-id="4900" xmlns:xlink="http://www.w3.org/1999/xlink" width="200" height="200"><defs><style type="text/css"></style></defs><path d="M512 316.372c-15.532 0-28.122-12.592-28.122-28.122V28.122C483.878 12.592 496.468 0 512 0s28.122 12.592 28.122 28.122v260.128c0 15.528-12.59 28.122-28.122 28.122z" fill="#2D527C" p-id="4901"></path><path d="M666.67 1024H192.974c-15.532 0-28.122-12.592-28.122-28.122V356.122c0-8.09 3.484-15.788 9.564-21.13L493.442 54.768a28.13 28.13 0 0 1 37.116 0l319.026 280.224a28.124 28.124 0 0 1 9.564 21.13V994.4c0 15.528-12.59 28.122-28.122 28.122s-28.122-12.592-28.122-28.122V368.85L512 113.328 221.096 368.85v598.906h445.574c15.532 0 28.122 12.592 28.122 28.122S682.202 1024 666.67 1024z" fill="#2D527C" p-id="4902"></path><path d="M572.462 316.372h-120.924c-15.532 0-28.122-12.592-28.122-28.122s12.59-28.122 28.122-28.122h120.924c15.532 0 28.122 12.592 28.122 28.122s-12.59 28.122-28.122 28.122z" fill="#2D527C" p-id="4903"></path><path d="M192.974 511.818H666.66v320.59H192.974z" fill="#CEE8FA" p-id="4904"></path><path d="M666.67 860.53H192.974c-15.532 0-28.122-12.592-28.122-28.122V511.818c0-15.528 12.59-28.122 28.122-28.122h473.696c15.532 0 28.122 12.592 28.122 28.122v320.59c0 15.53-12.59 28.122-28.122 28.122z m-445.574-56.244h417.452V539.94H221.096v264.346z" fill="#2D527C" p-id="4905"></path><path d="M372.33 643.992H192.974c-15.532 0-28.122-12.592-28.122-28.122s12.59-28.122 28.122-28.122h179.356c15.532 0 28.122 12.594 28.122 28.122s-12.59 28.122-28.122 28.122zM494.19 756.48H192.974c-15.532 0-28.122-12.592-28.122-28.122s12.59-28.122 28.122-28.122h301.216c15.532 0 28.122 12.592 28.122 28.122s-12.59 28.122-28.122 28.122z" fill="#2D527C" p-id="4906"></path></svg>